<mxfile host="app.diagrams.net" modified="2020-11-21T15:14:55.547Z" agent="5.0 (Macintosh; Intel Mac OS X 10_15_7) AppleWebKit/605.1.15 (KHTML, like Gecko) Version/14.0 Safari/605.1.15" etag="PEvh08JoZbpfQrjBP6dD" version="13.10.0" type="github">
  <diagram id="QWCjS-jjgBMs2KzzrsyV" name="Page-1">
    <mxGraphModel dx="1010" dy="1149" grid="1" gridSize="10" guides="1" tooltips="1" connect="1" arrows="1" fold="1" page="1" pageScale="1" pageWidth="827" pageHeight="1169" math="0" shadow="0">
      <root>
        <mxCell id="0" />
        <mxCell id="1" parent="0" />
        <mxCell id="oOH1jMDGswoYm-ntABah-15" value="NO" style="edgeStyle=orthogonalEdgeStyle;rounded=0;orthogonalLoop=1;jettySize=auto;html=1;exitX=0.5;exitY=1;exitDx=0;exitDy=0;entryX=0.5;entryY=0;entryDx=0;entryDy=0;fontSize=14;" edge="1" parent="1" source="oOH1jMDGswoYm-ntABah-1" target="oOH1jMDGswoYm-ntABah-8">
          <mxGeometry relative="1" as="geometry" />
        </mxCell>
        <mxCell id="oOH1jMDGswoYm-ntABah-16" value="YES" style="edgeStyle=orthogonalEdgeStyle;rounded=0;orthogonalLoop=1;jettySize=auto;html=1;exitX=1;exitY=0.5;exitDx=0;exitDy=0;fontSize=14;" edge="1" parent="1" source="oOH1jMDGswoYm-ntABah-1" target="oOH1jMDGswoYm-ntABah-17">
          <mxGeometry relative="1" as="geometry">
            <mxPoint x="440" y="275" as="targetPoint" />
          </mxGeometry>
        </mxCell>
        <mxCell id="oOH1jMDGswoYm-ntABah-1" value="&lt;font style=&quot;font-size: 16px&quot;&gt;built-in commend 인가&lt;/font&gt;" style="rhombus;whiteSpace=wrap;html=1;" vertex="1" parent="1">
          <mxGeometry x="130" y="240" width="230" height="70" as="geometry" />
        </mxCell>
        <mxCell id="oOH1jMDGswoYm-ntABah-2" value="&lt;font style=&quot;font-size: 18px&quot;&gt;&amp;nbsp;명령어 입력&lt;/font&gt;" style="rounded=1;whiteSpace=wrap;html=1;" vertex="1" parent="1">
          <mxGeometry x="150" y="100" width="190" height="60" as="geometry" />
        </mxCell>
        <mxCell id="oOH1jMDGswoYm-ntABah-4" value="" style="endArrow=classic;html=1;exitX=0.5;exitY=1;exitDx=0;exitDy=0;entryX=0.5;entryY=0;entryDx=0;entryDy=0;" edge="1" parent="1" source="oOH1jMDGswoYm-ntABah-2" target="oOH1jMDGswoYm-ntABah-1">
          <mxGeometry width="50" height="50" relative="1" as="geometry">
            <mxPoint x="335" y="710" as="sourcePoint" />
            <mxPoint x="385" y="660" as="targetPoint" />
          </mxGeometry>
        </mxCell>
        <mxCell id="oOH1jMDGswoYm-ntABah-7" value="execve로 실행 파일을 불러온다." style="rounded=1;whiteSpace=wrap;html=1;fontSize=14;" vertex="1" parent="1">
          <mxGeometry x="400" y="510" width="220" height="60" as="geometry" />
        </mxCell>
        <mxCell id="oOH1jMDGswoYm-ntABah-8" value="fork()" style="rounded=1;whiteSpace=wrap;html=1;fontSize=18;" vertex="1" parent="1">
          <mxGeometry x="185" y="370" width="120" height="60" as="geometry" />
        </mxCell>
        <mxCell id="oOH1jMDGswoYm-ntABah-10" value="&lt;font size=&quot;3&quot;&gt;백그라운드 프로세스인가?&lt;/font&gt;" style="rhombus;whiteSpace=wrap;html=1;" vertex="1" parent="1">
          <mxGeometry x="200" y="840" width="230" height="70" as="geometry" />
        </mxCell>
        <mxCell id="oOH1jMDGswoYm-ntABah-11" value="자식" style="endArrow=classic;html=1;fontSize=18;exitX=1;exitY=0.5;exitDx=0;exitDy=0;entryX=0.5;entryY=0;entryDx=0;entryDy=0;" edge="1" parent="1" source="oOH1jMDGswoYm-ntABah-8" target="oOH1jMDGswoYm-ntABah-7">
          <mxGeometry width="50" height="50" relative="1" as="geometry">
            <mxPoint x="490" y="710" as="sourcePoint" />
            <mxPoint x="540" y="660" as="targetPoint" />
            <Array as="points">
              <mxPoint x="510" y="400" />
            </Array>
          </mxGeometry>
        </mxCell>
        <mxCell id="oOH1jMDGswoYm-ntABah-17" value="command 실행" style="rounded=1;whiteSpace=wrap;html=1;fontSize=14;" vertex="1" parent="1">
          <mxGeometry x="480" y="245" width="120" height="60" as="geometry" />
        </mxCell>
      </root>
    </mxGraphModel>
  </diagram>
</mxfile>
